<svg width="139" height="23" viewBox="0 0 139 23" fill="none" xmlns="http://www.w3.org/2000/svg">
<path d="M22.2265 8.14878L15.2075 7.07661L12.0613 0.375307C11.8264 -0.125102 11.0053 -0.125102 10.7704 0.375307L7.6252 7.07661L0.606151 8.14878C0.0296338 8.23726 -0.200593 8.9384 0.203731 9.35224L5.30296 14.5789L4.0976 21.9681C4.00152 22.5551 4.62845 22.9955 5.14694 22.7073L11.4163 19.2425L17.6857 22.7082C18.1994 22.9936 18.8321 22.5617 18.7351 21.969L17.5297 14.5799L22.6289 9.35319C23.0332 8.9384 22.8021 8.23726 22.2265 8.14878Z" fill="#FFC107"/>
<path d="M51.0589 8.14878L44.0399 7.07661L40.8938 0.375307C40.6588 -0.125102 39.8378 -0.125102 39.6028 0.375307L36.4576 7.07661L29.4386 8.14878C28.8621 8.23726 28.6318 8.9384 29.0362 9.35224L34.1354 14.5789L32.93 21.9681C32.8339 22.5551 33.4609 22.9955 33.9794 22.7073L40.2488 19.2425L46.5181 22.7082C47.0319 22.9936 47.6645 22.5617 47.5675 21.969L46.3621 14.5799L51.4614 9.35319C51.8657 8.9384 51.6345 8.23726 51.0589 8.14878Z" fill="#FFC107"/>
<path d="M79.8914 8.14878L72.8723 7.07661L69.7262 0.375307C69.4912 -0.125102 68.6702 -0.125102 68.4352 0.375307L65.2901 7.07661L58.271 8.14878C57.6945 8.23726 57.4643 8.9384 57.8686 9.35224L62.9678 14.5789L61.7625 21.9681C61.6664 22.5551 62.2933 22.9955 62.8118 22.7073L69.0812 19.2425L75.3506 22.7082C75.8643 22.9936 76.497 22.5617 76.3999 21.969L75.1946 14.5799L80.2938 9.35319C80.6981 8.9384 80.4669 8.23726 79.8914 8.14878Z" fill="#FFC107"/>
<path d="M108.724 8.14878L101.705 7.07661L98.5586 0.375307C98.3236 -0.125102 97.5026 -0.125102 97.2676 0.375307L94.1225 7.07661L87.1034 8.14878C86.5269 8.23726 86.2967 8.9384 86.701 9.35224L91.8002 14.5789L90.5949 21.9681C90.4988 22.5551 91.1257 22.9955 91.6442 22.7073L97.9136 19.2425L104.183 22.7082C104.697 22.9936 105.329 22.5617 105.232 21.969L104.027 14.5799L109.126 9.35319C109.531 8.9384 109.299 8.23726 108.724 8.14878Z" fill="#FFC107"/>
<path d="M137.556 8.14878L130.537 7.07661L127.391 0.375307C127.156 -0.125102 126.335 -0.125102 126.1 0.375307L122.955 7.07661L115.936 8.14878C115.359 8.23726 115.129 8.9384 115.533 9.35224L120.633 14.5789L119.427 21.9681C119.331 22.5551 119.958 22.9955 120.477 22.7073L126.746 19.2425L133.015 22.7082C133.529 22.9936 134.162 22.5617 134.065 21.969L132.859 14.5799L137.959 9.35319C138.363 8.9384 138.132 8.23726 137.556 8.14878Z" fill="#FFC107"/>
</svg>
